<svg width="current" height="current" viewBox="0 0 32 32" fill="none" xmlns="http://www.w3.org/2000/svg">
<path d="M8.072 4.97597L21.294 10.642L16 12.91L2.854 7.27597C3.15 6.97397 3.512 6.72997 3.924 6.57197L8.072 4.97597ZM10.748 3.94797L13.848 2.75597C15.2339 2.22319 16.7681 2.22319 18.154 2.75597L28.078 6.57197C28.488 6.73197 28.85 6.97197 29.146 7.27597L23.834 9.55198L10.748 3.94797ZM29.988 9.09198L17 14.658V29.558C17.3933 29.4913 17.778 29.386 18.154 29.242L28.078 25.424C28.6438 25.2061 29.1303 24.822 29.4734 24.3221C29.8165 23.8223 30.0001 23.2302 30 22.624V9.37197C30 9.27864 29.9953 9.18531 29.986 9.09198M15 29.558V14.658L2.014 9.09198C2.00606 9.18512 2.00139 9.27851 2 9.37197V22.624C2.00008 23.2305 2.18399 23.8227 2.52746 24.3226C2.87094 24.8224 3.35786 25.2064 3.924 25.424L13.846 29.242C14.222 29.386 14.6067 29.4913 15 29.558Z" fill="#F5B233"/>
</svg>
