<svg width="28" height="28" viewBox="0 0 28 28" fill="none" xmlns="http://www.w3.org/2000/svg">
<path d="M21.3828 26.25C20.3153 26.25 18.8158 25.8639 16.5703 24.6094C13.8398 23.0781 11.7277 21.6644 9.01195 18.9558C6.39352 16.339 5.1193 14.6447 3.33594 11.3996C1.32125 7.73553 1.66469 5.8149 2.04859 4.99404C2.50578 4.01295 3.18063 3.42615 4.05289 2.84373C4.54833 2.51913 5.07263 2.24087 5.61914 2.01248C5.67383 1.98897 5.72469 1.96654 5.77008 1.94631C6.04078 1.82436 6.45094 1.64006 6.97047 1.83693C7.31719 1.96709 7.62672 2.23342 8.11125 2.71193C9.10492 3.69193 10.4628 5.87451 10.9637 6.94639C11.3001 7.66881 11.5227 8.14568 11.5232 8.68053C11.5232 9.3067 11.2082 9.78959 10.8259 10.3108C10.7543 10.4087 10.6832 10.5022 10.6143 10.5929C10.1981 11.1398 10.1068 11.2979 10.167 11.5801C10.2889 12.1472 11.1984 13.8354 12.693 15.3267C14.1876 16.818 15.8271 17.6701 16.3964 17.7915C16.6906 17.8544 16.852 17.7592 17.4163 17.3283C17.4973 17.2665 17.5804 17.2025 17.6673 17.1385C18.2503 16.7048 18.7108 16.398 19.3222 16.398H19.3255C19.8576 16.398 20.3131 16.6288 21.0678 17.0094C22.0522 17.506 24.3004 18.8464 25.2864 19.8412C25.766 20.3246 26.0334 20.633 26.1641 20.9792C26.361 21.5004 26.1756 21.9089 26.0548 22.1823C26.0345 22.2277 26.0121 22.2775 25.9886 22.3327C25.7584 22.8782 25.4785 23.4014 25.1524 23.8957C24.5711 24.7652 23.9821 25.4384 22.9988 25.8962C22.4939 26.135 21.9413 26.256 21.3828 26.25Z" fill="#F5B233"/>
</svg>
