<svg width="12" height="12" viewBox="0 0 12 12" fill="none" xmlns="http://www.w3.org/2000/svg">
<g clip-path="url(#clip0_646_1278)">
<path d="M7.5821 8.62501C7.35335 8.62501 7.03202 8.54228 6.55085 8.27345C5.96573 7.94533 5.51316 7.6424 4.9312 7.06197C4.37011 6.50122 4.09706 6.13818 3.71491 5.44279C3.28319 4.65763 3.35679 4.24607 3.43905 4.07017C3.53702 3.85994 3.68163 3.73419 3.86855 3.60939C3.97471 3.53983 4.08706 3.4802 4.20417 3.43126C4.21589 3.42622 4.22679 3.42142 4.23652 3.41708C4.29452 3.39095 4.38241 3.35146 4.49374 3.39365C4.56804 3.42154 4.63437 3.47861 4.73819 3.58115C4.95112 3.79115 5.2421 4.25884 5.34944 4.48853C5.42151 4.64333 5.46921 4.74552 5.46933 4.86013C5.46933 4.99431 5.40183 5.09779 5.31991 5.20947C5.30456 5.23044 5.28933 5.25048 5.27456 5.26993C5.18538 5.38712 5.16581 5.42099 5.1787 5.48146C5.20484 5.60298 5.39972 5.96474 5.71999 6.28431C6.04026 6.60388 6.39159 6.78646 6.51358 6.81247C6.57663 6.82595 6.6112 6.80556 6.73214 6.71322C6.74948 6.69997 6.7673 6.68626 6.78593 6.67255C6.91085 6.57962 7.00952 6.51388 7.14054 6.51388C7.25456 6.51388 7.35288 6.56333 7.5146 6.6449C7.72554 6.7513 8.2073 7.03853 8.41858 7.25169C8.52136 7.35529 8.57866 7.42138 8.60667 7.49556C8.64886 7.60724 8.60913 7.69478 8.58323 7.75337C8.5789 7.7631 8.57409 7.77376 8.56905 7.7856C8.51973 7.9025 8.45975 8.01461 8.38987 8.12052C8.2653 8.30685 8.13909 8.45111 7.92839 8.54919C7.8202 8.60038 7.70178 8.6263 7.5821 8.62501Z" fill="white"/>
</g>
<path fill-rule="evenodd" clip-rule="evenodd" d="M0 6C0 2.68636 2.68636 0 6 0C9.31364 0 12 2.68636 12 6C12 9.31364 9.31364 12 6 12C2.68636 12 0 9.31364 0 6ZM6 10.9091C5.35533 10.9091 4.71697 10.7821 4.12137 10.5354C3.52577 10.2887 2.9846 9.9271 2.52875 9.47125C2.0729 9.0154 1.7113 8.47423 1.46459 7.87863C1.21789 7.28303 1.09091 6.64467 1.09091 6C1.09091 5.35533 1.21789 4.71697 1.46459 4.12137C1.7113 3.52577 2.0729 2.9846 2.52875 2.52875C2.9846 2.0729 3.52577 1.7113 4.12137 1.46459C4.71697 1.21789 5.35533 1.09091 6 1.09091C7.30197 1.09091 8.55062 1.60812 9.47125 2.52875C10.3919 3.44938 10.9091 4.69803 10.9091 6C10.9091 7.30197 10.3919 8.55062 9.47125 9.47125C8.55062 10.3919 7.30197 10.9091 6 10.9091Z" fill="white"/>
<defs>
<clipPath id="clip0_646_1278">
<rect width="6" height="6" fill="white" transform="translate(3 3)"/>
</clipPath>
</defs>
</svg>
