<svg width="28" height="28" viewBox="0 0 28 28" fill="none" xmlns="http://www.w3.org/2000/svg">
<g clip-path="url(#clip0_499_3369)">
<path d="M26.8335 9.87006C26.4207 9.34345 25.8393 8.9748 25.1869 8.82595C24.5346 8.67709 23.8508 8.75707 23.2504 9.05249C22.65 9.3479 22.1695 9.84078 21.8893 10.4485C21.6092 11.0561 21.5465 11.7417 21.7118 12.3901C21.741 12.5166 21.8123 12.6294 21.9141 12.7099C22.0158 12.7905 22.142 12.8341 22.2718 12.8334H22.8785C22.9209 12.8337 22.9626 12.8433 23.0009 12.8615C23.0392 12.8796 23.0731 12.9058 23.1002 12.9384C23.1292 12.9713 23.1497 13.0109 23.1599 13.0536C23.17 13.0963 23.1696 13.1409 23.1585 13.1834L22.6802 15.5167C22.604 15.7811 22.4674 16.0242 22.2811 16.2267C22.0948 16.4292 21.864 16.5855 21.6068 16.6834C21.5448 16.7044 21.4778 16.7056 21.415 16.6868C21.3523 16.668 21.297 16.6301 21.2568 16.5784C21.0462 16.2917 20.7532 16.076 20.4168 15.9601C18.3325 15.3622 16.1674 15.0945 14.0002 15.1667C11.8398 15.1285 9.68664 15.4276 7.6185 16.0534C7.28215 16.1693 6.98914 16.385 6.7785 16.6717C6.73831 16.7234 6.68301 16.7613 6.62028 16.7802C6.55755 16.799 6.49051 16.7978 6.4285 16.7767C6.17134 16.6789 5.94049 16.5225 5.7542 16.32C5.56791 16.1175 5.4313 15.8745 5.35516 15.6101L4.87683 13.2767C4.86576 13.2342 4.8653 13.1897 4.87547 13.147C4.88564 13.1042 4.90614 13.0647 4.93516 13.0317C4.95092 12.9818 4.97981 12.9371 5.01881 12.9022C5.05781 12.8673 5.10549 12.8435 5.15683 12.8334H5.7635C5.89331 12.8341 6.01948 12.7905 6.12125 12.7099C6.22303 12.6294 6.29436 12.5166 6.3235 12.3901C6.43526 11.9589 6.44681 11.5079 6.35726 11.0717C6.26771 10.6354 6.07943 10.2254 5.80687 9.87317C5.5343 9.52093 5.18469 9.2358 4.78485 9.03962C4.385 8.84345 3.94554 8.74146 3.50016 8.74146C3.05479 8.74146 2.61532 8.84345 2.21548 9.03962C1.81563 9.2358 1.46602 9.52093 1.19346 9.87317C0.920895 10.2254 0.732618 10.6354 0.643065 11.0717C0.553512 11.5079 0.565062 11.9589 0.676829 12.3901C0.705969 12.5166 0.777294 12.6294 0.879072 12.7099C0.98085 12.7905 1.10702 12.8341 1.23683 12.8334H1.9485C2.08297 12.8334 2.21333 12.8798 2.3175 12.9648C2.42167 13.0499 2.49327 13.1683 2.52016 13.3001L3.0685 16.0184C3.2448 16.8088 3.64957 17.5298 4.23245 18.092C4.81533 18.6541 5.5506 19.0325 6.34683 19.1801C6.39373 19.1887 6.43806 19.2079 6.47645 19.2362C6.51485 19.2645 6.54632 19.3012 6.5685 19.3434C6.69953 19.6599 6.92114 19.9306 7.2055 20.1215C7.48986 20.3125 7.8243 20.4152 8.16683 20.4167H12.5418C12.6192 20.4167 12.6934 20.4475 12.7481 20.5022C12.8028 20.5569 12.8335 20.631 12.8335 20.7084V21.4084C12.8316 21.4794 12.8049 21.5474 12.758 21.6007C12.7111 21.654 12.647 21.6892 12.5768 21.7001C10.5269 21.9089 8.62521 22.8639 7.2335 24.3834C7.20573 24.419 7.17038 24.4479 7.13001 24.4681C7.08965 24.4883 7.04528 24.4992 7.00016 24.5001C6.65709 24.5003 6.32166 24.6014 6.03558 24.7908C5.74951 24.9802 5.52541 25.2495 5.39114 25.5652C5.25688 25.8809 5.21837 26.2291 5.28042 26.5665C5.34246 26.904 5.50232 27.2157 5.74011 27.463C5.97789 27.7103 6.28313 27.8823 6.61786 27.9575C6.95259 28.0327 7.30204 28.0079 7.62278 27.8861C7.94351 27.7643 8.22137 27.5509 8.42181 27.2725C8.62226 26.9941 8.73644 26.6629 8.75016 26.3201C8.75016 26.1801 8.75016 26.1451 9.10016 25.7834C10.0051 24.8399 11.2007 24.2277 12.4952 24.0451C12.5368 24.0392 12.5792 24.0425 12.6195 24.0545C12.6598 24.0666 12.6969 24.0873 12.7285 24.1151C12.7631 24.1403 12.7908 24.1738 12.8092 24.2125C12.8275 24.2513 12.8359 24.294 12.8335 24.3367V24.9551C12.5693 25.1913 12.3831 25.5023 12.2995 25.8467C12.2159 26.1911 12.2389 26.5528 12.3654 26.8839C12.4918 27.215 12.7158 27.4998 13.0078 27.7008C13.2997 27.9018 13.6457 28.0094 14.0002 28.0094C14.3546 28.0094 14.7006 27.9018 14.9926 27.7008C15.2845 27.4998 15.5085 27.215 15.635 26.8839C15.7614 26.5528 15.7844 26.1911 15.7008 25.8467C15.6172 25.5023 15.431 25.1913 15.1668 24.9551V24.3367C15.1654 24.2924 15.1742 24.2484 15.1924 24.2079C15.2106 24.1675 15.2377 24.1317 15.2718 24.1034C15.3403 24.057 15.4229 24.0363 15.5052 24.0451C16.7996 24.2277 17.9953 24.8399 18.9002 25.7834C19.2035 26.1567 19.2502 26.1801 19.2502 26.3201C19.2639 26.6629 19.3781 26.9941 19.5785 27.2725C19.779 27.5509 20.0568 27.7643 20.3775 27.8861C20.6983 28.0079 21.0477 28.0327 21.3825 27.9575C21.7172 27.8823 22.0224 27.7103 22.2602 27.463C22.498 27.2157 22.6579 26.904 22.7199 26.5665C22.782 26.2291 22.7434 25.8809 22.6092 25.5652C22.4749 25.2495 22.2508 24.9802 21.9647 24.7908C21.6787 24.6014 21.3432 24.5003 21.0002 24.5001C20.9558 24.5014 20.9118 24.4927 20.8714 24.4745C20.8309 24.4563 20.7952 24.4291 20.7668 24.3951C19.3751 22.8755 17.4734 21.9205 15.4235 21.7117C15.3533 21.7008 15.2892 21.6657 15.2423 21.6124C15.1954 21.5591 15.1687 21.491 15.1668 21.4201V20.7201C15.1668 20.6427 15.1976 20.5685 15.2523 20.5138C15.307 20.4591 15.3811 20.4284 15.4585 20.4284H19.8335C20.176 20.4269 20.5105 20.3242 20.7948 20.1332C21.0792 19.9423 21.3008 19.6715 21.4318 19.3551C21.454 19.3128 21.4855 19.2762 21.5239 19.2479C21.5623 19.2196 21.6066 19.2004 21.6535 19.1917C22.4497 19.0442 23.185 18.6658 23.7679 18.1036C24.3508 17.5415 24.7555 16.8204 24.9318 16.0301L25.4802 13.3117C25.5071 13.18 25.5786 13.0615 25.6828 12.9765C25.787 12.8915 25.9174 12.845 26.0518 12.8451H26.7635C26.8933 12.8457 27.0195 12.8022 27.1213 12.7216C27.223 12.641 27.2944 12.5282 27.3235 12.4017C27.4422 11.9705 27.4598 11.5177 27.3748 11.0785C27.2898 10.6394 27.1046 10.2258 26.8335 9.87006Z" fill="#F5B233"/>
<path d="M8.3765 13.4983C8.42409 13.63 8.51746 13.7401 8.63955 13.8087C8.76164 13.8772 8.90431 13.8996 9.0415 13.8716C12.3193 13.2662 15.6803 13.2662 18.9582 13.8716C19.0952 13.8971 19.2368 13.8737 19.3583 13.8055C19.4799 13.7373 19.5736 13.6286 19.6232 13.4983C20.5317 11.2159 21.1889 8.84135 21.5832 6.41664C21.4655 4.77709 20.764 3.23404 19.606 2.06746C18.448 0.900873 16.9101 0.188042 15.2715 0.0583021C14.4257 -0.0236658 13.574 -0.0236658 12.7282 0.0583021C11.0895 0.188042 9.5517 0.900873 8.39368 2.06746C7.23565 3.23404 6.53417 4.77709 6.4165 6.41664C6.81081 8.84135 7.46802 11.2159 8.3765 13.4983Z" fill="#F5B233"/>
</g>
<defs>
<clipPath id="clip0_499_3369">
<rect width="28" height="28" fill="white"/>
</clipPath>
</defs>
</svg>
