<svg width="16" height="16" viewBox="0 0 16 16" fill="current" xmlns="http://www.w3.org/2000/svg">
<path d="M6.72223 11.1377L3.63641 8.05115L4.66478 7.02279L6.72223 9.07951L10.8357 4.96533L11.8648 5.99442L6.72223 11.1377Z" fill="#165C36"/>
<path fill-rule="evenodd" clip-rule="evenodd" d="M0 8C0 3.58182 3.58182 0 8 0C12.4182 0 16 3.58182 16 8C16 12.4182 12.4182 16 8 16C3.58182 16 0 12.4182 0 8ZM8 14.5455C7.14044 14.5455 6.28929 14.3762 5.49516 14.0472C4.70103 13.7183 3.97947 13.2361 3.37166 12.6283C2.76386 12.0205 2.28173 11.299 1.95279 10.5048C1.62385 9.71071 1.45455 8.85956 1.45455 8C1.45455 7.14044 1.62385 6.28929 1.95279 5.49516C2.28173 4.70103 2.76386 3.97947 3.37166 3.37166C3.97947 2.76386 4.70103 2.28173 5.49516 1.95279C6.28929 1.62385 7.14044 1.45455 8 1.45455C9.73596 1.45455 11.4008 2.14415 12.6283 3.37166C13.8558 4.59918 14.5455 6.26404 14.5455 8C14.5455 9.73596 13.8558 11.4008 12.6283 12.6283C11.4008 13.8558 9.73596 14.5455 8 14.5455Z" fill="#165C36"/>
</svg>
