<svg width="current" height="current" viewBox="0 0 32 32" fill="none" xmlns="http://www.w3.org/2000/svg">
<path d="M29.3194 23.9225L20.3125 9.62V4.625H22.3125V2H9.68753V4.625H11.6875V9.62L2.68065 23.9225C1.86815 25.2125 1.7569 26.6556 2.49315 27.9912C3.2294 29.3269 4.4744 30 6.00003 30H26C27.5257 30 28.77 29.3275 29.5063 27.9912C30.2425 26.655 30.1338 25.2125 29.3194 23.9225ZM14.0244 10.8369C14.2139 10.5378 14.314 10.1909 14.3132 9.83687V4.625H17.6882V9.91187C17.6881 10.2176 17.7748 10.5172 17.9382 10.7756L22.3013 17.6875H9.69878L14.0244 10.8369Z" fill="#F5B233"/>
</svg>
