<svg width="current" height="current" viewBox="0 0 32 32" fill="none" xmlns="http://www.w3.org/2000/svg">
<path d="M28.6667 8.66667H24.6667V3.33333C24.6667 2.53333 24.1333 2 23.3333 2H8.66667C7.86667 2 7.33333 2.53333 7.33333 3.33333V8.66667H3.33333C2.53333 8.66667 2 9.2 2 10V28.6667C2 29.4667 2.53333 30 3.33333 30H28.6667C29.4667 30 30 29.4667 30 28.6667V10C30 9.2 29.4667 8.66667 28.6667 8.66667ZM10 24.6667H8.66667C7.86667 24.6667 7.33333 24.1333 7.33333 23.3333C7.33333 22.5333 7.86667 22 8.66667 22H10C10.8 22 11.3333 22.5333 11.3333 23.3333C11.3333 24.1333 10.8 24.6667 10 24.6667ZM10 19.3333H8.66667C7.86667 19.3333 7.33333 18.8 7.33333 18C7.33333 17.2 7.86667 16.6667 8.66667 16.6667H10C10.8 16.6667 11.3333 17.2 11.3333 18C11.3333 18.8 10.8 19.3333 10 19.3333ZM16.6667 24.6667H15.3333C14.5333 24.6667 14 24.1333 14 23.3333C14 22.5333 14.5333 22 15.3333 22H16.6667C17.4667 22 18 22.5333 18 23.3333C18 24.1333 17.4667 24.6667 16.6667 24.6667ZM16.6667 19.3333H15.3333C14.5333 19.3333 14 18.8 14 18C14 17.2 14.5333 16.6667 15.3333 16.6667H16.6667C17.4667 16.6667 18 17.2 18 18C18 18.8 17.4667 19.3333 16.6667 19.3333ZM18 12H17.3333V12.6667C17.3333 13.4667 16.8 14 16 14C15.2 14 14.6667 13.4667 14.6667 12.6667V12H14C13.2 12 12.6667 11.4667 12.6667 10.6667C12.6667 9.86667 13.2 9.33333 14 9.33333H14.6667V8.66667C14.6667 7.86667 15.2 7.33333 16 7.33333C16.8 7.33333 17.3333 7.86667 17.3333 8.66667V9.33333H18C18.8 9.33333 19.3333 9.86667 19.3333 10.6667C19.3333 11.4667 18.8 12 18 12ZM23.3333 24.6667H22C21.2 24.6667 20.6667 24.1333 20.6667 23.3333C20.6667 22.5333 21.2 22 22 22H23.3333C24.1333 22 24.6667 22.5333 24.6667 23.3333C24.6667 24.1333 24.1333 24.6667 23.3333 24.6667ZM23.3333 19.3333H22C21.2 19.3333 20.6667 18.8 20.6667 18C20.6667 17.2 21.2 16.6667 22 16.6667H23.3333C24.1333 16.6667 24.6667 17.2 24.6667 18C24.6667 18.8 24.1333 19.3333 23.3333 19.3333Z" fill="#F5B233"/>
</svg>
