<svg width="current" height="current" viewBox="0 0 32 32" fill="none" xmlns="http://www.w3.org/2000/svg">
<path d="M17.414 3C17.039 2.62506 16.5304 2.41443 16 2.41443C15.4697 2.41443 14.9611 2.62506 14.586 3L1.29204 16.292C1.19907 16.385 1.12531 16.4954 1.075 16.6168C1.02468 16.7383 0.998779 16.8685 0.998779 17C0.998779 17.1315 1.02468 17.2617 1.075 17.3832C1.12531 17.5046 1.19907 17.615 1.29204 17.708C1.47982 17.8958 1.73449 18.0013 2.00004 18.0013C2.13153 18.0013 2.26173 17.9754 2.38321 17.925C2.50469 17.8747 2.61507 17.801 2.70804 17.708L16 4.414L29.292 17.708C29.4798 17.8958 29.7345 18.0013 30 18.0013C30.2656 18.0013 30.5203 17.8958 30.708 17.708C30.8958 17.5202 31.0013 17.2656 31.0013 17C31.0013 16.7345 30.8958 16.4798 30.708 16.292L26 11.586V5C26 4.73479 25.8947 4.48043 25.7071 4.2929C25.5196 4.10536 25.2653 4 25 4H23C22.7348 4 22.4805 4.10536 22.2929 4.2929C22.1054 4.48043 22 4.73479 22 5V7.586L17.414 3Z" fill="#F5B233"/>
<path d="M16 6.58606L28 18.5861V27.0001C28 27.7957 27.6839 28.5588 27.1213 29.1214C26.5587 29.684 25.7956 30.0001 25 30.0001H7C6.20435 30.0001 5.44129 29.684 4.87868 29.1214C4.31607 28.5588 4 27.7957 4 27.0001V18.5861L16 6.58606Z" fill="#F5B233"/>
</svg>
