<svg width="16" height="16" viewBox="0 0 16 16" fill="none" xmlns="http://www.w3.org/2000/svg">
<path d="M4.04092 8.08628L8.20592 3.92127C8.27538 3.85181 8.27538 3.74073 8.20592 3.65748C8.13646 3.57423 8.02538 3.58802 7.94213 3.65748L3.65213 7.94748C3.58267 8.01694 3.58267 8.12802 3.65213 8.21128L7.90057 12.4597C7.94219 12.5013 7.98382 12.5153 8.02557 12.5153C8.06719 12.5153 8.12274 12.5013 8.15057 12.4597C8.22003 12.3903 8.22003 12.2792 8.15057 12.1959L4.04092 8.08628Z" fill="#868E96"/>
<path d="M8.04092 8.08628L12.2059 3.92127C12.2754 3.85181 12.2754 3.74073 12.2059 3.65748C12.1365 3.57423 12.0254 3.58802 11.9421 3.65748L7.65213 7.94748C7.58267 8.01694 7.58267 8.12802 7.65213 8.21128L11.9006 12.4597C11.9422 12.5013 11.9838 12.5153 12.0256 12.5153C12.0672 12.5153 12.1227 12.5013 12.1506 12.4597C12.22 12.3903 12.22 12.2792 12.1506 12.1959L8.04092 8.08628Z" fill="#868E96"/>
</svg>
