<svg width="40" height="40" viewBox="0 0 40 40" fill="current" xmlns="http://www.w3.org/2000/svg">
<path d="M10.1022 20.2154L20.5147 9.80294C20.6884 9.62929 20.6884 9.35159 20.5147 9.14346C20.3411 8.93533 20.0634 8.96981 19.8552 9.14346L9.13024 19.8685C8.95659 20.0421 8.95659 20.3198 9.13024 20.5279L19.7513 31.149C19.8554 31.2531 19.9595 31.2879 20.0638 31.2879C20.1679 31.2879 20.3068 31.2531 20.3763 31.149C20.55 30.9754 20.55 30.6977 20.3763 30.4896L10.1022 20.2154Z" fill="#868E96"/>
<path d="M20.1022 20.2154L30.5147 9.80294C30.6884 9.62929 30.6884 9.35159 30.5147 9.14346C30.3411 8.93533 30.0634 8.96981 29.8552 9.14346L19.1302 19.8685C18.9566 20.0421 18.9566 20.3198 19.1302 20.5279L29.7513 31.149C29.8554 31.2531 29.9595 31.2879 30.0638 31.2879C30.1679 31.2879 30.3068 31.2531 30.3763 31.149C30.55 30.9754 30.55 30.6977 30.3763 30.4896L20.1022 20.2154Z" fill="#868E96"/>
</svg>
