<svg width="133" height="29" viewBox="0 0 133 29" fill="none" xmlns="http://www.w3.org/2000/svg">
<path d="M12.6582 0L0.316456 7.25L12.6582 14.3476L25 7.25L12.6582 0Z" fill="current"/>
<path d="M12.9747 14.8152L25 7.89957V21.4348L12.9747 29V14.8152Z" fill="current"/>
<path d="M12.0253 14.6272L0 21.5619V7.71151L12.0253 14.6272Z" fill="current"/>
<path d="M0.316456 22.0652L12.3418 15.1304V29L0.316456 22.0652Z" fill="current"/>
<path d="M29.8555 14.7656C29.8555 12.5625 30.5938 10.7344 31.7305 9.15234H33.8984C33.0781 10.3242 32.1641 12.6562 32.1641 14.7656C32.1641 16.875 33.0781 19.207 33.8984 20.3906H31.7305C30.5938 18.7969 29.8555 16.9688 29.8555 14.7656ZM44.2109 14.1797V15.668H40.1562V19.1719H38.293V15.668H34.3203V14.1797H44.2109ZM43.3555 8.83594V10.2773H40.4258C40.6191 11.1094 41.498 12.0176 43.8125 12.2695L43.1328 13.7344C41.1582 13.5059 39.9102 12.7676 39.2656 11.7656C38.627 12.7676 37.3906 13.5059 35.4219 13.7344L34.7422 12.2695C37.0273 12.0176 37.9062 11.1094 38.1289 10.2773H35.1875V8.83594H43.3555ZM48.6641 14.7656C48.6641 16.9688 47.9258 18.7969 46.7891 20.3906H44.6211C45.4414 19.207 46.3555 16.875 46.3555 14.7656C46.3555 12.6562 45.4414 10.3242 44.6211 9.15234H46.7891C47.9258 10.7344 48.6641 12.5625 48.6641 14.7656ZM59.2227 8.32031V19.1602H57.4297V8.32031H59.2227ZM56.9141 8.44922V18.6914H55.1445V13.6758H54.6172C54.459 15.8086 53.5508 17.0742 52.2148 17.0742C50.7617 17.0742 49.8242 15.5508 49.8359 13.0312C49.8242 10.5352 50.7617 9.01172 52.2148 9.01172C53.5098 9.01172 54.4004 10.2012 54.6055 12.1992H55.1445V8.44922H56.9141ZM52.2148 10.793C51.7695 10.793 51.5469 11.4375 51.5586 13.0312C51.5469 14.6367 51.7695 15.2695 52.2148 15.2695C52.6719 15.2695 52.918 14.6367 52.918 13.0312C52.918 11.4375 52.6719 10.793 52.2148 10.793ZM69.2891 8.32031V19.1953H67.3906V8.32031H69.2891ZM63.3359 9.04688C64.9883 9.03516 66.2305 10.5586 66.2305 12.9492C66.2305 15.375 64.9883 16.8867 63.3359 16.8867C61.6484 16.8867 60.3945 15.375 60.3945 12.9492C60.3945 10.5586 61.6484 9.03516 63.3359 9.04688ZM63.3359 10.7461C62.6445 10.7344 62.2109 11.4492 62.2109 12.9492C62.2109 14.4727 62.6445 15.1641 63.3359 15.1641C63.9805 15.1641 64.4258 14.4727 64.4258 12.9492C64.4258 11.4492 63.9805 10.7344 63.3359 10.7461ZM79.6367 8.32031V19.1602H77.7617V8.32031H79.6367ZM74.9023 11.6484C74.9023 13.0547 75.5352 14.8242 77.457 15.6094L76.4609 17.0391C75.2598 16.5703 74.4512 15.6328 73.9766 14.5078C73.502 15.7031 72.6816 16.7051 71.4453 17.1914L70.4609 15.7617C72.3594 14.9414 73.0156 13.125 73.0156 11.6484V11.5078H70.8711V10.0195H73.0039V8.60156H74.8789V10.0195H76.9766V11.5078H74.9023V11.6484ZM90.3359 8.32031V19.1602H88.543V8.32031H90.3359ZM88.0273 8.44922V18.6914H86.2578V13.6758H85.7305C85.5723 15.8086 84.6641 17.0742 83.3281 17.0742C81.875 17.0742 80.9375 15.5508 80.9492 13.0312C80.9375 10.5352 81.875 9.01172 83.3281 9.01172C84.623 9.01172 85.5137 10.2012 85.7188 12.1992H86.2578V8.44922H88.0273ZM83.3281 10.793C82.8828 10.793 82.6602 11.4375 82.6719 13.0312C82.6602 14.6367 82.8828 15.2695 83.3281 15.2695C83.7852 15.2695 84.0312 14.6367 84.0312 13.0312C84.0312 11.4375 83.7852 10.793 83.3281 10.793ZM97.1445 9.64453C97.1328 11.0742 98.082 12.7969 100.895 13.2539L100.086 14.8125C98.0996 14.4492 96.8164 13.4648 96.1367 12.1992C95.4336 13.4531 94.1445 14.4375 92.1875 14.8125L91.3906 13.2539C94.1445 12.7852 95.1172 11.0391 95.1172 9.64453V8.90625H97.1445V9.64453ZM101.152 16.3945V17.9297H91.25V16.3945H101.152ZM110.668 9.14062V10.043C110.656 11.3438 110.68 12.9141 110.141 15.3281L108.312 15.1523C108.471 14.4316 108.576 13.7812 108.652 13.1836L102.582 13.5234L102.336 11.9297L108.77 11.7539C108.793 11.3496 108.799 10.9746 108.805 10.6289H102.711V9.14062H110.668ZM111.512 16.5469V18.0586H101.621V16.5469H104.949V14.0625H106.812V16.5469H111.512ZM121.156 8.32031V19.1953H119.281V8.32031H121.156ZM117.758 9.17578V13.5586H114.488V15.1758C116.035 15.1582 117.307 15.0703 118.684 14.8359L118.836 16.3477C117.195 16.6523 115.613 16.7109 113.562 16.7109H112.543V12.0938H115.836V10.6758H112.543V9.17578H117.758ZM125.293 9.04688C126.98 9.03516 128.223 10.5586 128.223 12.9492C128.223 15.375 126.98 16.8867 125.293 16.8867C123.594 16.8867 122.34 15.375 122.352 12.9492C122.34 10.5586 123.594 9.03516 125.293 9.04688ZM125.293 10.7461C124.613 10.7344 124.168 11.4492 124.18 12.9492C124.168 14.4727 124.613 15.1641 125.293 15.1641C125.984 15.1641 126.418 14.4727 126.43 12.9492C126.418 11.4492 125.984 10.7344 125.293 10.7461ZM131.012 8.32031V12.2578H132.477V13.8164H131.012V19.1602H129.125V8.32031H131.012Z" fill="current"/>
</svg>
