<svg width="current" height="current" viewBox="0 0 32 32" fill="none" xmlns="http://www.w3.org/2000/svg">
<path fill-rule="evenodd" clip-rule="evenodd" d="M6.17533 4C5.92333 4 5.69867 4.17467 5.612 4.43733L4.07333 9.11133C4.02475 9.25914 4 9.41374 4 9.56933V11.4287C4 12.48 4.76733 13.3333 5.714 13.3333C6.66067 13.3333 7.42867 12.48 7.42867 11.4287C7.42867 12.4807 8.196 13.3333 9.14267 13.3333C10.0893 13.3333 10.8573 12.48 10.8573 11.4287C10.8573 12.4807 11.6247 13.3333 12.5713 13.3333C13.518 13.3333 14.2847 12.4813 14.286 11.43C14.286 12.4813 15.0533 13.3333 16 13.3333C16.9467 13.3333 17.714 12.48 17.714 11.4287C17.714 12.4807 18.482 13.3333 19.4287 13.3333C20.3753 13.3333 21.142 12.4813 21.1427 11.43C21.1433 12.4813 21.9107 13.3333 22.8573 13.3333C23.804 13.3333 24.5713 12.48 24.5713 11.4287C24.5713 12.4807 25.3387 13.3333 26.286 13.3333C27.2327 13.3333 28 12.48 28 11.4287V9.56933C28 9.41374 27.9753 9.25914 27.9267 9.11133L26.388 4.438C26.3013 4.17467 26.0767 4 25.8247 4H6.17533Z" fill="#F5B233"/>
<path fill-rule="evenodd" clip-rule="evenodd" d="M6.66675 14.1534V19.3334H5.00008C4.91168 19.3334 4.82689 19.3685 4.76438 19.431C4.70187 19.4935 4.66675 19.5783 4.66675 19.6667V20.3334C4.66675 20.4218 4.70187 20.5065 4.76438 20.5691C4.82689 20.6316 4.91168 20.6667 5.00008 20.6667H27.0001C27.0885 20.6667 27.1733 20.6316 27.2358 20.5691C27.2983 20.5065 27.3334 20.4218 27.3334 20.3334V19.6667C27.3334 19.5783 27.2983 19.4935 27.2358 19.431C27.1733 19.3685 27.0885 19.3334 27.0001 19.3334H25.3334V14.1534C25.0542 14.0423 24.7964 13.8838 24.5714 13.6847C24.3984 13.8368 24.2063 13.9659 24.0001 14.0687V19.3334H8.00008V14.0687C7.79385 13.9659 7.6018 13.8368 7.42875 13.6847C7.20475 13.8814 6.94875 14.0414 6.66675 14.1534ZM24.0001 12.8487C24.0565 12.7922 24.1099 12.7316 24.1601 12.6667H24.0001V12.8487ZM24.9827 12.6667C25.0838 12.797 25.2018 12.9134 25.3334 13.0127V12.6667H24.9827ZM6.66675 13.0127C6.79951 12.9146 6.91759 12.7981 7.01741 12.6667H6.66675V13.0127ZM7.84008 12.6667H8.00008V12.8487C7.94312 12.7913 7.88969 12.7305 7.84008 12.6667ZM5.66675 22C5.57834 22 5.49356 22.0351 5.43105 22.0977C5.36853 22.1602 5.33341 22.2449 5.33341 22.3334V27.3334C5.33341 27.5102 5.40365 27.6797 5.52868 27.8048C5.6537 27.9298 5.82327 28 6.00008 28H26.0001C26.1769 28 26.3465 27.9298 26.4715 27.8048C26.5965 27.6797 26.6667 27.5102 26.6667 27.3334V22.3334C26.6667 22.2449 26.6316 22.1602 26.5691 22.0977C26.5066 22.0351 26.4218 22 26.3334 22H5.66675Z" fill="#F5B233"/>
<path d="M9.33325 17.6666C9.33325 17.5782 9.36837 17.4935 9.43088 17.4309C9.49339 17.3684 9.57818 17.3333 9.66659 17.3333H11.6666C11.755 17.3333 11.8398 17.3684 11.9023 17.4309C11.9648 17.4935 11.9999 17.5782 11.9999 17.6666V19C11.9999 19.0884 11.9648 19.1732 11.9023 19.2357C11.8398 19.2982 11.755 19.3333 11.6666 19.3333H9.66659C9.57818 19.3333 9.49339 19.2982 9.43088 19.2357C9.36837 19.1732 9.33325 19.0884 9.33325 19V17.6666Z" fill="#F5B233"/>
<path d="M10.6667 18.3333C10.6667 18.2449 10.7019 18.1601 10.7644 18.0976C10.8269 18.0351 10.9117 18 11.0001 18H13.0001C13.0885 18 13.1733 18.0351 13.2358 18.0976C13.2983 18.1601 13.3334 18.2449 13.3334 18.3333V19C13.3334 19.0884 13.2983 19.1732 13.2358 19.2357C13.1733 19.2982 13.0885 19.3333 13.0001 19.3333H11.0001C10.9117 19.3333 10.8269 19.2982 10.7644 19.2357C10.7019 19.1732 10.6667 19.0884 10.6667 19V18.3333ZM16.0001 18.3333C16.0001 18.5985 15.8947 18.8529 15.7072 19.0404C15.5197 19.228 15.2653 19.3333 15.0001 19.3333C14.7349 19.3333 14.4805 19.228 14.293 19.0404C14.1054 18.8529 14.0001 18.5985 14.0001 18.3333C14.0001 18.0681 14.1054 17.8137 14.293 17.6262C14.4805 17.4387 14.7349 17.3333 15.0001 17.3333C15.2653 17.3333 15.5197 17.4387 15.7072 17.6262C15.8947 17.8137 16.0001 18.0681 16.0001 18.3333Z" fill="#F5B233"/>
</svg>
