<svg width="current" height="current" viewBox="0 0 40 40" fill="none" xmlns="http://www.w3.org/2000/svg">
<path d="M26.6668 5C27.9422 4.99993 29.1694 5.48721 30.0973 6.36214C31.0252 7.23707 31.5837 8.43351 31.6585 9.70667L31.6668 10V26.6667H32.9168C33.9952 26.6667 34.8835 27.4867 34.9902 28.5367L35.0002 28.75V31.6667C35.0002 32.942 34.513 34.1692 33.638 35.0971C32.7631 36.025 31.5667 36.5835 30.2935 36.6583L30.0002 36.6667H13.3335C12.0581 36.6667 10.831 36.1795 9.90306 35.3045C8.97515 34.4296 8.41665 33.2332 8.34183 31.96L8.3335 31.6667V15H5.41683C4.90107 15.0002 4.40355 14.8091 4.02055 14.4637C3.63756 14.1183 3.39631 13.6431 3.3435 13.13L3.3335 12.9167V10C3.33343 8.72465 3.8207 7.49748 4.69564 6.56957C5.57057 5.64166 6.76701 5.08315 8.04016 5.00833L8.3335 5H26.6668ZM31.6668 30H16.6668V31.6667C16.6668 32.25 16.5668 32.8117 16.3835 33.3333H30.0002C30.4422 33.3333 30.8661 33.1577 31.1787 32.8452C31.4912 32.5326 31.6668 32.1087 31.6668 31.6667V30ZM20.0002 20H16.6668C16.242 20.0005 15.8334 20.1631 15.5245 20.4547C15.2157 20.7464 15.0298 21.1449 15.0049 21.569C14.98 21.9931 15.118 22.4106 15.3906 22.7364C15.6633 23.0621 16.05 23.2715 16.4718 23.3217L16.6668 23.3333H20.0002C20.425 23.3329 20.8335 23.1702 21.1424 22.8786C21.4513 22.587 21.6372 22.1884 21.6621 21.7643C21.687 21.3403 21.549 20.9227 21.2764 20.5969C21.0037 20.2712 20.617 20.0618 20.1952 20.0117L20.0002 20ZM23.3335 13.3333H16.6668C16.2248 13.3333 15.8009 13.5089 15.4883 13.8215C15.1758 14.134 15.0002 14.558 15.0002 15C15.0002 15.442 15.1758 15.8659 15.4883 16.1785C15.8009 16.4911 16.2248 16.6667 16.6668 16.6667H23.3335C23.7755 16.6667 24.1994 16.4911 24.512 16.1785C24.8246 15.8659 25.0002 15.442 25.0002 15C25.0002 14.558 24.8246 14.134 24.512 13.8215C24.1994 13.5089 23.7755 13.3333 23.3335 13.3333ZM8.3335 8.33333C7.89147 8.33333 7.46755 8.50893 7.15498 8.82149C6.84242 9.13405 6.66683 9.55797 6.66683 10V11.6667H8.3335V8.33333Z" fill="#F5B233"/>
</svg>
