<svg width="16" height="16" viewBox="0 0 16 16" fill="current" xmlns="http://www.w3.org/2000/svg">
<path fill-rule="evenodd" clip-rule="evenodd" d="M0 8C0 3.58182 3.58182 0 8 0C12.4182 0 16 3.58182 16 8C16 12.4182 12.4182 16 8 16C3.58182 16 0 12.4182 0 8ZM8 14.5455C7.14044 14.5455 6.28929 14.3762 5.49516 14.0472C4.70103 13.7183 3.97947 13.2361 3.37166 12.6283C2.76386 12.0205 2.28173 11.299 1.95279 10.5048C1.62385 9.71071 1.45455 8.85956 1.45455 8C1.45455 7.14044 1.62385 6.28929 1.95279 5.49516C2.28173 4.70103 2.76386 3.97947 3.37166 3.37166C3.97947 2.76386 4.70103 2.28173 5.49516 1.95279C6.28929 1.62385 7.14044 1.45455 8 1.45455C9.73596 1.45455 11.4008 2.14415 12.6283 3.37166C13.8558 4.59918 14.5455 6.26404 14.5455 8C14.5455 9.73596 13.8558 11.4008 12.6283 12.6283C11.4008 13.8558 9.73596 14.5455 8 14.5455Z" fill="#165C36"/>
<path fill-rule="evenodd" clip-rule="evenodd" d="M11.1012 9.24001C11.4813 8.85982 11.7549 8.38648 11.8946 7.86736C12.0342 7.34823 12.0352 6.80152 11.8972 6.28193C11.7592 5.76234 11.4872 5.28809 11.1084 4.90664C10.7295 4.52519 10.2572 4.24991 9.73851 4.10834C9.21986 3.96678 8.67313 3.96389 8.15302 4.09998C7.6329 4.23607 7.15765 4.50635 6.77481 4.88378C6.39197 5.26122 6.11497 5.73257 5.97153 6.25068C5.82809 6.76878 5.82323 7.31547 5.95744 7.83604C5.99967 8.00004 5.96189 8.17737 5.84277 8.29692L4.1925 9.94667C4.12277 10.0164 4.06963 10.101 4.03701 10.1941C4.00439 10.2872 3.99312 10.3864 4.00404 10.4844L4.10716 11.4129C4.11827 11.512 4.16272 11.604 4.23294 11.6746L4.32539 11.7671C4.3961 11.8371 4.48829 11.8814 4.58717 11.8928L5.51565 11.996C5.61368 12.0069 5.71292 11.9956 5.80601 11.963C5.89911 11.9304 5.98367 11.8772 6.05344 11.8075L6.36901 11.492L5.59254 10.724C5.56058 10.6934 5.53504 10.6567 5.51739 10.6162C5.49974 10.5756 5.49035 10.5319 5.48975 10.4877C5.48915 10.4435 5.49737 10.3996 5.51392 10.3585C5.53046 10.3175 5.55501 10.2802 5.58613 10.2487C5.61725 10.2173 5.65432 10.1924 5.69518 10.1754C5.73603 10.1584 5.77986 10.1497 5.8241 10.1499C5.86834 10.15 5.91211 10.159 5.95286 10.1762C5.99361 10.1934 6.03052 10.2186 6.06144 10.2502L6.84014 11.0204L7.70328 10.1573C7.82328 10.0373 8.00017 10.0004 8.16418 10.0427C8.68124 10.1761 9.2242 10.1723 9.73932 10.0315C10.2544 9.89076 10.7239 9.61792 11.1012 9.24001ZM8.26063 6.48274C8.34263 6.39784 8.44072 6.33013 8.54917 6.28354C8.65762 6.23696 8.77426 6.21244 8.89229 6.21141C9.01032 6.21039 9.12737 6.23288 9.23662 6.27757C9.34586 6.32226 9.44511 6.38826 9.52858 6.47172C9.61204 6.55518 9.67804 6.65442 9.72274 6.76366C9.76744 6.8729 9.78993 6.98995 9.7889 7.10797C9.78788 7.226 9.76335 7.34263 9.71677 7.45108C9.67018 7.55952 9.60246 7.65761 9.51756 7.7396C9.34991 7.90152 9.12536 7.99111 8.89229 7.98908C8.65922 7.98706 8.43627 7.89358 8.27146 7.72877C8.10664 7.56397 8.01316 7.34103 8.01113 7.10797C8.00911 6.87491 8.0987 6.65038 8.26063 6.48274Z" fill="#165C36"/>
</svg>
