<svg width="16" height="16" viewBox="0 0 16 16" fill="none" xmlns="http://www.w3.org/2000/svg">
<path d="M11.8171 8.08628L7.65209 3.92127C7.58263 3.85181 7.58263 3.74073 7.65209 3.65748C7.72155 3.57423 7.83263 3.58802 7.91589 3.65748L12.2059 7.94748C12.2753 8.01694 12.2753 8.12802 12.2059 8.21128L7.95745 12.4597C7.91582 12.5013 7.8742 12.5153 7.83245 12.5153C7.79082 12.5153 7.73528 12.5013 7.70745 12.4597C7.63799 12.3903 7.63799 12.2792 7.70745 12.1959L11.8171 8.08628Z" fill="#868E96"/>
<path d="M7.81709 8.08628L3.65209 3.92127C3.58263 3.85181 3.58263 3.74073 3.65209 3.65748C3.72155 3.57423 3.83263 3.58802 3.91589 3.65748L8.20589 7.94748C8.27535 8.01694 8.27535 8.12802 8.20589 8.21128L3.95745 12.4597C3.91582 12.5013 3.8742 12.5153 3.83245 12.5153C3.79082 12.5153 3.73528 12.5013 3.70745 12.4597C3.63799 12.3903 3.63799 12.2792 3.70745 12.1959L7.81709 8.08628Z" fill="#868E96"/>
</svg>
