<svg width="current" height="current" viewBox="0 0 28 28" fill="none" xmlns="http://www.w3.org/2000/svg">
<path d="M22.2835 9.09996C21.8402 8.51663 21.1518 8.16663 20.4168 8.16663H17.5002V6.99996C17.5002 5.71663 16.4502 4.66663 15.1668 4.66663H4.66683C3.3835 4.66663 2.3335 5.71663 2.3335 6.99996V18.6666C2.3335 19.95 3.3835 21 4.66683 21C4.66683 22.925 6.24183 24.5 8.16683 24.5C10.0918 24.5 11.6668 22.925 11.6668 21H16.3335C16.3335 22.925 17.9085 24.5 19.8335 24.5C21.7585 24.5 23.3335 22.925 23.3335 21C24.6168 21 25.6668 19.95 25.6668 18.6666V14.385C25.6668 13.8833 25.5035 13.3816 25.2002 12.985L22.2835 9.09996ZM8.16683 22.1666C7.96205 22.1664 7.76093 22.1124 7.58355 22.0101C7.40617 21.9078 7.25874 21.7607 7.156 21.5836C7.05327 21.4064 6.99881 21.2054 6.99808 21.0006C6.99734 20.7959 7.05036 20.5945 7.15183 20.4166C7.57183 19.6933 8.7035 19.6816 9.1585 20.3933C9.27442 20.5743 9.33522 20.785 9.3335 21C9.3335 21.6416 8.8085 22.1666 8.16683 22.1666ZM19.8335 22.1666C19.6287 22.1664 19.4276 22.1124 19.2502 22.0101C19.0728 21.9078 18.9254 21.7607 18.8227 21.5836C18.7199 21.4064 18.6655 21.2054 18.6647 21.0006C18.664 20.7959 18.717 20.5945 18.8185 20.4166C19.2385 19.6933 20.3702 19.6816 20.8252 20.3933C20.9411 20.5743 21.0019 20.785 21.0002 21C21.0002 21.6416 20.4752 22.1666 19.8335 22.1666ZM17.5002 14V10.5H20.4168L23.0418 14H17.5002Z" fill="#F5B233"/>
</svg>
