<svg width="16" height="16" viewBox="0 0 16 16" fill="current" xmlns="http://www.w3.org/2000/svg">
<path fill-rule="evenodd" clip-rule="evenodd" d="M0 8C0 3.58182 3.58182 0 8 0C12.4182 0 16 3.58182 16 8C16 12.4182 12.4182 16 8 16C3.58182 16 0 12.4182 0 8ZM8 14.5455C7.14044 14.5455 6.28929 14.3762 5.49516 14.0472C4.70103 13.7183 3.97947 13.2361 3.37166 12.6283C2.76386 12.0205 2.28173 11.299 1.95279 10.5048C1.62385 9.71071 1.45455 8.85956 1.45455 8C1.45455 7.14044 1.62385 6.28929 1.95279 5.49516C2.28173 4.70103 2.76386 3.97947 3.37166 3.37166C3.97947 2.76386 4.70103 2.28173 5.49516 1.95279C6.28929 1.62385 7.14044 1.45455 8 1.45455C9.73596 1.45455 11.4008 2.14415 12.6283 3.37166C13.8558 4.59918 14.5455 6.26404 14.5455 8C14.5455 9.73596 13.8558 11.4008 12.6283 12.6283C11.4008 13.8558 9.73596 14.5455 8 14.5455Z" fill="#165C36"/>
<path d="M9.93689 8.23833C10.4505 7.77272 10.7391 7.14123 10.7391 6.48276C10.7391 5.82429 10.4505 5.19279 9.93689 4.72718C9.42324 4.26158 8.72657 4 8.00015 4C7.27373 4 6.57707 4.26158 6.06341 4.72718C5.54976 5.19279 5.26119 5.82429 5.26119 6.48276C5.26119 7.14123 5.54976 7.77272 6.06341 8.23833C6.57707 8.70394 7.27373 8.96551 8.00015 8.96551C8.72657 8.96551 9.42324 8.70394 9.93689 8.23833Z" fill="#165C36"/>
<path d="M12.3889 13.7677C11.0977 14.5725 9.56709 15.0022 8.00015 15C6.43321 15.0022 4.90257 14.5725 3.61142 13.7677C3.05998 13.4242 2.82443 12.7704 3.14488 12.2383C3.80954 11.1351 5.17902 10.4482 8.00015 10.4482C10.8213 10.4482 12.1908 11.1351 12.8545 12.2383C13.1759 12.7704 12.9403 13.4242 12.3889 13.7677Z" fill="#165C36"/>
</svg>
