<svg width="16" height="16" viewBox="0 0 16 16" fill="none" xmlns="http://www.w3.org/2000/svg">
<path d="M2 8H14V13.4C14 13.5591 13.9368 13.7117 13.8243 13.8243C13.7117 13.9368 13.5591 14 13.4 14H2.6C2.44087 14 2.28826 13.9368 2.17574 13.8243C2.06321 13.7117 2 13.5591 2 13.4V8ZM11 3.2H13.4C13.5591 3.2 13.7117 3.26321 13.8243 3.37574C13.9368 3.48826 14 3.64087 14 3.8V6.8H2V3.8C2 3.64087 2.06321 3.48826 2.17574 3.37574C2.28826 3.26321 2.44087 3.2 2.6 3.2H5V2H6.2V3.2H9.8V2H11V3.2Z" fill="#ADB5BD"/>
</svg>
