<svg width="69" height="69" viewBox="0 0 69 69" fill="none" xmlns="http://www.w3.org/2000/svg">
<path fill-rule="evenodd" clip-rule="evenodd" d="M11.8162 60.0866C10.9876 60.9152 9.64421 60.9152 8.81554 60.0866C7.98694 59.2575 7.98694 57.9146 8.81554 57.0859L31.4508 34.4507L8.81554 11.8154C7.98694 10.9868 7.98694 9.64342 8.81554 8.81474C9.64413 7.98615 10.9876 7.98615 11.8162 8.81474L34.4515 31.45L57.0854 8.81474C57.9139 7.98615 59.2574 7.98615 60.086 8.81474C60.9146 9.64334 60.9146 10.9868 60.086 11.8154L37.4522 34.4507L60.086 57.0859C60.9146 57.9145 60.9146 59.2574 60.086 60.0866C59.2574 60.9152 57.914 60.9152 57.0854 60.0866L34.4515 37.4514L11.8162 60.0866Z" fill="#868E96"/>
</svg>
