<svg width="14" height="14" viewBox="0 0 14 14" fill="none" xmlns="http://www.w3.org/2000/svg">
<path d="M6.58453 9.96835C6.79303 9.96835 7.00836 9.88354 7.15629 9.73422C7.31234 9.5755 7.39309 9.37361 7.39982 9.15306C7.40249 9.07636 7.38775 8.997 7.36617 8.9217C7.32986 8.79791 7.25851 8.67283 7.16708 8.5813C7.089 8.50322 7.00291 8.44949 6.90336 8.40773C6.79975 8.3633 6.70287 8.33777 6.58593 8.33777C6.51457 8.33777 6.43126 8.35123 6.36258 8.36874C6.24017 8.401 6.10559 8.48036 6.01545 8.57051C5.86613 8.71983 5.76391 8.93774 5.77192 9.15167C5.77865 9.36284 5.85267 9.56333 6.00061 9.71671C6.15805 9.88493 6.35982 9.95628 6.58453 9.96835C6.75137 9.97775 6.94514 9.88632 7.06081 9.77193C7.17787 9.65486 7.26525 9.46387 7.25723 9.29565C7.24912 9.12208 7.19261 8.9418 7.06081 8.81938C6.92494 8.69559 6.77017 8.63235 6.58453 8.62295C6.57919 8.62295 6.57375 8.62295 6.56841 8.62156C6.62758 8.62968 6.68814 8.63769 6.74732 8.64581C6.73119 8.64314 6.71912 8.64047 6.70427 8.63374C6.75811 8.6566 6.81194 8.67946 6.86438 8.70103C6.85498 8.69697 6.84687 8.69163 6.83885 8.68618C6.88457 8.72111 6.929 8.75615 6.97472 8.79107C6.96265 8.78167 6.95314 8.77227 6.94375 8.7601C6.97867 8.80581 7.01371 8.85025 7.04863 8.89596C7.04329 8.88784 7.03785 8.87983 7.03379 8.87043C7.05664 8.92427 7.0795 8.9781 7.10108 9.03055C7.09574 9.0157 7.09168 9.00235 7.08901 8.9875C7.09712 9.04668 7.10514 9.10724 7.11325 9.16641C7.11186 9.14622 7.11186 9.15562 7.11325 9.13544C7.10514 9.19461 7.09712 9.25517 7.08901 9.31435C7.09168 9.29822 7.09435 9.28615 7.10108 9.2713C7.07822 9.32514 7.05536 9.37897 7.03379 9.43141C7.03785 9.42201 7.04319 9.4139 7.04863 9.40589C7.01371 9.4516 6.97867 9.49604 6.94375 9.54175C6.95314 9.52968 6.96254 9.52018 6.97472 9.51078C6.929 9.5457 6.88457 9.58074 6.83885 9.61566C6.84697 9.61032 6.85498 9.60488 6.86438 9.60082C6.81055 9.62368 6.75672 9.64653 6.70427 9.66811C6.71912 9.66277 6.73247 9.65871 6.74732 9.65604C6.68814 9.66416 6.62758 9.67217 6.56841 9.68028C6.58859 9.6789 6.57919 9.6789 6.59938 9.68028C6.54021 9.67217 6.47965 9.66416 6.42047 9.65604C6.4366 9.65871 6.44867 9.66138 6.46351 9.66811C6.40968 9.64525 6.35585 9.62239 6.3034 9.60082C6.3128 9.60488 6.32092 9.61022 6.32893 9.61566C6.28322 9.58074 6.23878 9.5457 6.19307 9.51078C6.20514 9.52018 6.21464 9.52958 6.22404 9.54175C6.18911 9.49604 6.15408 9.4516 6.11915 9.40589C6.12449 9.414 6.12994 9.42201 6.134 9.43141C6.11114 9.37758 6.08828 9.32375 6.06671 9.2713C6.07205 9.28615 6.07611 9.2995 6.07878 9.31435C6.07066 9.25517 6.06265 9.19461 6.05453 9.13544C6.05592 9.15562 6.05592 9.14622 6.05453 9.16641C6.06265 9.10724 6.07066 9.04668 6.07878 8.9875C6.07611 9.00363 6.07344 9.0157 6.06671 9.03055C6.08957 8.97671 6.11243 8.92288 6.134 8.87043C6.12994 8.87983 6.1246 8.88795 6.11915 8.89596C6.15408 8.85025 6.18911 8.80581 6.22404 8.7601C6.21464 8.77217 6.20524 8.78167 6.19307 8.79107C6.23878 8.75615 6.28322 8.72111 6.32893 8.68618C6.32081 8.69152 6.3128 8.69697 6.3034 8.70103C6.35724 8.67817 6.41107 8.65532 6.46351 8.63374C6.44867 8.63908 6.43532 8.64314 6.42047 8.64581C6.47965 8.63769 6.54021 8.62968 6.59938 8.62156C6.59404 8.62156 6.58859 8.62295 6.58325 8.62295C6.41107 8.62295 6.2294 8.69825 6.10698 8.81938C5.98991 8.93644 5.90254 9.12743 5.91055 9.29565C5.91867 9.46922 5.97517 9.64951 6.10698 9.77193C6.24007 9.89166 6.40283 9.96835 6.58453 9.96835Z" fill="#E05252"/>
<path d="M5.91187 3.62243V4.81574V6.71933V7.15789C5.91187 7.33008 5.98717 7.51175 6.10829 7.63417C6.22536 7.75123 6.41635 7.83861 6.58456 7.83059C6.75813 7.82248 6.93842 7.76597 7.06084 7.63417C7.18196 7.50236 7.25727 7.34085 7.25727 7.15789V5.96459V4.06099V3.62243C7.25727 3.45025 7.18196 3.26857 7.06084 3.14615C6.94377 3.02909 6.75278 2.94172 6.58456 2.94973C6.411 2.95785 6.23071 3.01435 6.10829 3.14615C5.98856 3.27807 5.91187 3.43947 5.91187 3.62243Z" fill="#E05252"/>
<path d="M11.8244 6.58622C11.8244 6.85528 11.8056 7.12306 11.7706 7.38934C11.7787 7.33016 11.7867 7.2696 11.7948 7.21042C11.7248 7.72033 11.589 8.22075 11.3899 8.69563C11.4127 8.64179 11.4356 8.58796 11.4572 8.53552C11.2595 9.00506 11.0011 9.44768 10.6904 9.85122C10.7253 9.8055 10.7603 9.76107 10.7952 9.71535C10.4818 10.1203 10.1186 10.4848 9.71356 10.797C9.75927 10.7621 9.80371 10.7271 9.84942 10.6922C9.44577 11.003 9.00327 11.2599 8.53372 11.459C8.58756 11.4361 8.64139 11.4132 8.69383 11.3917C8.21895 11.5908 7.71843 11.7266 7.20863 11.7966C7.26781 11.7885 7.32837 11.7805 7.38754 11.7724C6.85477 11.8437 6.3126 11.8437 5.77992 11.7724C5.83909 11.7805 5.89966 11.7885 5.95883 11.7966C5.44892 11.7266 4.94851 11.5908 4.47363 11.3917C4.52746 11.4145 4.58129 11.4374 4.63374 11.459C4.16419 11.2612 3.72158 11.0029 3.31804 10.6922C3.36376 10.7271 3.40819 10.7621 3.4539 10.797C3.04897 10.4835 2.68442 10.1204 2.37221 9.71535C2.40714 9.76107 2.44218 9.8055 2.4771 9.85122C2.16629 9.44757 1.90939 9.00506 1.7103 8.53552C1.73316 8.58935 1.75602 8.64318 1.77759 8.69563C1.5785 8.22075 1.44263 7.72022 1.37266 7.21042C1.38077 7.2696 1.38879 7.33016 1.3969 7.38934C1.32555 6.85657 1.32555 6.3144 1.3969 5.78171C1.38879 5.84089 1.38078 5.90145 1.37266 5.96062C1.44262 5.45072 1.57848 4.9503 1.77759 4.47542C1.75473 4.52926 1.73187 4.58309 1.7103 4.63553C1.90801 4.16599 2.16639 3.72337 2.4771 3.31983C2.44218 3.36555 2.40714 3.40998 2.37221 3.4557C2.68571 3.05077 3.04886 2.68622 3.4539 2.37401C3.40819 2.40893 3.36376 2.44397 3.31804 2.4789C3.72169 2.16808 4.16419 1.91118 4.63374 1.7121C4.5799 1.73495 4.52607 1.75781 4.47363 1.77939C4.94851 1.58029 5.44903 1.44442 5.95883 1.37445C5.89966 1.38257 5.83909 1.39058 5.77992 1.3987C6.31269 1.32735 6.85486 1.32735 7.38754 1.3987C7.32837 1.39058 7.26781 1.38257 7.20863 1.37445C7.71854 1.44441 8.21895 1.58028 8.69383 1.77939C8.64 1.75653 8.58617 1.73367 8.53372 1.7121C9.00327 1.9098 9.44588 2.16819 9.84942 2.4789C9.80371 2.44397 9.75927 2.40893 9.71356 2.37401C10.1185 2.6875 10.483 3.05066 10.7952 3.4557C10.7603 3.40998 10.7253 3.36555 10.6904 3.31983C11.0012 3.72348 11.2581 4.16599 11.4572 4.63553C11.4343 4.5817 11.4114 4.52787 11.3899 4.47542C11.589 4.9503 11.7248 5.45083 11.7948 5.96062C11.7867 5.90145 11.7787 5.84089 11.7706 5.78171C11.8056 6.04939 11.823 6.31716 11.8244 6.58622C11.8244 6.7584 11.8997 6.94008 12.0208 7.0625C12.1379 7.17956 12.3289 7.26693 12.4971 7.25892C12.6707 7.2508 12.8509 7.1943 12.9734 7.0625C13.0945 6.93069 13.1711 6.76918 13.1698 6.58622C13.1684 5.91086 13.0676 5.2248 12.859 4.58168C12.6558 3.95748 12.3653 3.35474 11.9845 2.81929C11.7814 2.5341 11.5594 2.25831 11.3159 2.00538C11.0724 1.75384 10.8073 1.53179 10.5302 1.31921C10.0055 0.916961 9.42031 0.61298 8.80155 0.385562C8.16922 0.152821 7.49257 0.031707 6.82126 0.00488275C6.14053 -0.0220339 5.4436 0.0627746 4.78713 0.248411C4.15885 0.427321 3.54545 0.701826 2.9992 1.06104C2.45575 1.41886 1.95661 1.8507 1.54219 2.35249C1.32024 2.62154 1.11175 2.90406 0.932726 3.20271C0.749758 3.50809 0.600444 3.8296 0.465858 4.15794C0.208871 4.78354 0.0689367 5.44938 0.0178859 6.12349C-0.0345594 6.80421 0.0299559 7.49975 0.190067 8.16295C0.344729 8.802 0.605774 9.4276 0.947461 9.98984C1.28242 10.5414 1.7022 11.054 2.1852 11.4832C2.67354 11.9164 3.22107 12.2891 3.81708 12.5581C4.14124 12.7048 4.47226 12.8339 4.81395 12.9294C5.16781 13.0275 5.52691 13.0881 5.89157 13.1299C6.57366 13.2092 7.26783 13.1648 7.93915 13.0289C8.58761 12.8984 9.21993 12.6563 9.79702 12.3334C10.3607 12.0186 10.8867 11.6123 11.332 11.1454C11.7814 10.6759 12.1714 10.1351 12.4607 9.55252C12.7567 8.9579 12.9746 8.3229 13.0755 7.66635C13.1306 7.30713 13.1683 6.94666 13.1683 6.5834C13.1683 6.41122 13.093 6.22954 12.9719 6.10713C12.8548 5.99006 12.6638 5.90269 12.4956 5.9107C12.322 5.91882 12.1417 5.97532 12.0193 6.10713C11.8997 6.24171 11.8244 6.40321 11.8244 6.58619L11.8244 6.58622Z" fill="#E05252"/>
</svg>
