<svg width="155" height="36" viewBox="0 0 155 36" fill="none" xmlns="http://www.w3.org/2000/svg">
<path d="M23.6582 3L11.3165 10.25L23.6582 17.3476L36 10.25L23.6582 3Z" fill="#F0A500"/>
<path d="M23.9747 17.8152L36 10.8996V24.4348L23.9747 32V17.8152Z" fill="#F0A500"/>
<path d="M23.0253 17.6272L11 24.5619V10.7115L23.0253 17.6272Z" fill="#F0A500"/>
<path d="M11.3165 25.0652L23.3418 18.1304V32L11.3165 25.0652Z" fill="#F0A500"/>
<path d="M40.8555 17.7656C40.8555 15.5625 41.5938 13.7344 42.7305 12.1523H44.8984C44.0781 13.3242 43.1641 15.6562 43.1641 17.7656C43.1641 19.875 44.0781 22.207 44.8984 23.3906H42.7305C41.5938 21.7969 40.8555 19.9688 40.8555 17.7656ZM55.2109 17.1797V18.668H51.1562V22.1719H49.293V18.668H45.3203V17.1797H55.2109ZM54.3555 11.8359V13.2773H51.4258C51.6191 14.1094 52.498 15.0176 54.8125 15.2695L54.1328 16.7344C52.1582 16.5059 50.9102 15.7676 50.2656 14.7656C49.627 15.7676 48.3906 16.5059 46.4219 16.7344L45.7422 15.2695C48.0273 15.0176 48.9062 14.1094 49.1289 13.2773H46.1875V11.8359H54.3555ZM59.6641 17.7656C59.6641 19.9688 58.9258 21.7969 57.7891 23.3906H55.6211C56.4414 22.207 57.3555 19.875 57.3555 17.7656C57.3555 15.6562 56.4414 13.3242 55.6211 12.1523H57.7891C58.9258 13.7344 59.6641 15.5625 59.6641 17.7656ZM70.2227 11.3203V22.1602H68.4297V11.3203H70.2227ZM67.9141 11.4492V21.6914H66.1445V16.6758H65.6172C65.459 18.8086 64.5508 20.0742 63.2148 20.0742C61.7617 20.0742 60.8242 18.5508 60.8359 16.0312C60.8242 13.5352 61.7617 12.0117 63.2148 12.0117C64.5098 12.0117 65.4004 13.2012 65.6055 15.1992H66.1445V11.4492H67.9141ZM63.2148 13.793C62.7695 13.793 62.5469 14.4375 62.5586 16.0312C62.5469 17.6367 62.7695 18.2695 63.2148 18.2695C63.6719 18.2695 63.918 17.6367 63.918 16.0312C63.918 14.4375 63.6719 13.793 63.2148 13.793ZM80.2891 11.3203V22.1953H78.3906V11.3203H80.2891ZM74.3359 12.0469C75.9883 12.0352 77.2305 13.5586 77.2305 15.9492C77.2305 18.375 75.9883 19.8867 74.3359 19.8867C72.6484 19.8867 71.3945 18.375 71.3945 15.9492C71.3945 13.5586 72.6484 12.0352 74.3359 12.0469ZM74.3359 13.7461C73.6445 13.7344 73.2109 14.4492 73.2109 15.9492C73.2109 17.4727 73.6445 18.1641 74.3359 18.1641C74.9805 18.1641 75.4258 17.4727 75.4258 15.9492C75.4258 14.4492 74.9805 13.7344 74.3359 13.7461ZM90.6367 11.3203V22.1602H88.7617V11.3203H90.6367ZM85.9023 14.6484C85.9023 16.0547 86.5352 17.8242 88.457 18.6094L87.4609 20.0391C86.2598 19.5703 85.4512 18.6328 84.9766 17.5078C84.502 18.7031 83.6816 19.7051 82.4453 20.1914L81.4609 18.7617C83.3594 17.9414 84.0156 16.125 84.0156 14.6484V14.5078H81.8711V13.0195H84.0039V11.6016H85.8789V13.0195H87.9766V14.5078H85.9023V14.6484ZM101.336 11.3203V22.1602H99.543V11.3203H101.336ZM99.0273 11.4492V21.6914H97.2578V16.6758H96.7305C96.5723 18.8086 95.6641 20.0742 94.3281 20.0742C92.875 20.0742 91.9375 18.5508 91.9492 16.0312C91.9375 13.5352 92.875 12.0117 94.3281 12.0117C95.623 12.0117 96.5137 13.2012 96.7188 15.1992H97.2578V11.4492H99.0273ZM94.3281 13.793C93.8828 13.793 93.6602 14.4375 93.6719 16.0312C93.6602 17.6367 93.8828 18.2695 94.3281 18.2695C94.7852 18.2695 95.0312 17.6367 95.0312 16.0312C95.0312 14.4375 94.7852 13.793 94.3281 13.793ZM108.145 12.6445C108.133 14.0742 109.082 15.7969 111.895 16.2539L111.086 17.8125C109.1 17.4492 107.816 16.4648 107.137 15.1992C106.434 16.4531 105.145 17.4375 103.188 17.8125L102.391 16.2539C105.145 15.7852 106.117 14.0391 106.117 12.6445V11.9062H108.145V12.6445ZM112.152 19.3945V20.9297H102.25V19.3945H112.152ZM121.668 12.1406V13.043C121.656 14.3438 121.68 15.9141 121.141 18.3281L119.312 18.1523C119.471 17.4316 119.576 16.7812 119.652 16.1836L113.582 16.5234L113.336 14.9297L119.77 14.7539C119.793 14.3496 119.799 13.9746 119.805 13.6289H113.711V12.1406H121.668ZM122.512 19.5469V21.0586H112.621V19.5469H115.949V17.0625H117.812V19.5469H122.512ZM132.156 11.3203V22.1953H130.281V11.3203H132.156ZM128.758 12.1758V16.5586H125.488V18.1758C127.035 18.1582 128.307 18.0703 129.684 17.8359L129.836 19.3477C128.195 19.6523 126.613 19.7109 124.562 19.7109H123.543V15.0938H126.836V13.6758H123.543V12.1758H128.758ZM136.293 12.0469C137.98 12.0352 139.223 13.5586 139.223 15.9492C139.223 18.375 137.98 19.8867 136.293 19.8867C134.594 19.8867 133.34 18.375 133.352 15.9492C133.34 13.5586 134.594 12.0352 136.293 12.0469ZM136.293 13.7461C135.613 13.7344 135.168 14.4492 135.18 15.9492C135.168 17.4727 135.613 18.1641 136.293 18.1641C136.984 18.1641 137.418 17.4727 137.43 15.9492C137.418 14.4492 136.984 13.7344 136.293 13.7461ZM142.012 11.3203V15.2578H143.477V16.8164H142.012V22.1602H140.125V11.3203H142.012Z" fill="#F0A500"/>
</svg>
