<svg width="69" height="69" viewBox="0 0 69 69" fill="none" xmlns="http://www.w3.org/2000/svg">
<path d="M61.3774 20.886H8.11174C7.3992 20.8951 6.71173 20.6189 6.20483 20.1188C5.69717 19.618 5.41187 18.9351 5.41187 18.2226C5.41187 17.51 5.69719 16.8271 6.20483 16.3263C6.71173 15.8262 7.3992 15.5492 8.11174 15.5591H61.3774C62.0899 15.5492 62.7766 15.8262 63.2835 16.3263C63.7912 16.8271 64.0765 17.51 64.0765 18.2226C64.0765 18.9351 63.7912 19.618 63.2835 20.1188C62.7766 20.6189 62.0899 20.8951 61.3774 20.886Z" fill="black"/>
<path d="M61.3774 36.6043H8.11174C7.3992 36.6134 6.71173 36.3372 6.20483 35.8371C5.69717 35.3363 5.41187 34.6533 5.41187 33.9408C5.41187 33.2283 5.69719 32.5453 6.20483 32.0445C6.71173 31.5445 7.3992 31.2675 8.11174 31.2774H61.3774C62.0899 31.2675 62.7766 31.5445 63.2835 32.0445C63.7912 32.5453 64.0765 33.2283 64.0765 33.9408C64.0765 34.6533 63.7912 35.3363 63.2835 35.8371C62.7766 36.3372 62.0899 36.6134 61.3774 36.6043Z" fill="black"/>
<path d="M61.3774 52.8454H8.11174C7.3992 52.8553 6.71173 52.579 6.20483 52.0782C5.69717 51.5782 5.41187 50.8952 5.41187 50.1827C5.41187 49.4694 5.69719 48.7865 6.20483 48.2864C6.71173 47.7856 7.3992 47.5094 8.11174 47.5192H61.3774C62.0899 47.5094 62.7766 47.7856 63.2835 48.2864C63.7912 48.7865 64.0765 49.4694 64.0765 50.1827C64.0765 50.8952 63.7912 51.5782 63.2835 52.0782C62.7766 52.579 62.0899 52.8553 61.3774 52.8454Z" fill="black"/>
</svg>
