<svg width="40" height="40" viewBox="0 0 40 40" fill="none" xmlns="http://www.w3.org/2000/svg">
<path d="M29.5428 20.2154L19.1303 9.80294C18.9567 9.62929 18.9567 9.35159 19.1303 9.14346C19.3039 8.93533 19.5817 8.96981 19.7898 9.14346L30.5148 19.8685C30.6884 20.0421 30.6884 20.3198 30.5148 20.5279L19.8937 31.149C19.7896 31.2531 19.6856 31.2879 19.5812 31.2879C19.4771 31.2879 19.3383 31.2531 19.2687 31.149C19.095 30.9754 19.095 30.6977 19.2687 30.4896L29.5428 20.2154Z" fill="#868E96"/>
<path d="M19.5428 20.2154L9.1303 9.80294C8.95665 9.62929 8.95665 9.35159 9.1303 9.14346C9.30395 8.93533 9.58165 8.96981 9.78978 9.14346L20.5148 19.8685C20.6884 20.0421 20.6884 20.3198 20.5148 20.5279L9.89369 31.149C9.78963 31.2531 9.68556 31.2879 9.58119 31.2879C9.47713 31.2879 9.33827 31.2531 9.26869 31.149C9.09504 30.9754 9.09504 30.6977 9.26869 30.4896L19.5428 20.2154Z" fill="#868E96"/>
</svg>
